<?xml version="1.0" standalone="no"?>
<!DOCTYPE svg PUBLIC "-//W3C//DTD SVG 20010904//EN"
 "http://www.w3.org/TR/2001/REC-SVG-20010904/DTD/svg10.dtd">
<svg version="1.0" xmlns="http://www.w3.org/2000/svg"
 width="512.000000pt" height="512.000000pt" viewBox="0 0 512.000000 512.000000"
 preserveAspectRatio="xMidYMid meet">
<metadata>
Created by potrace 1.14, written by Peter Selinger 2001-2017
</metadata>
<g transform="translate(0.000000,512.000000) scale(0.100000,-0.100000)"
fill="#000000" stroke="none">
<path d="M2460 4465 c-104 -17 -159 -31 -235 -60 -236 -89 -446 -257 -586
-469 -33 -49 -59 -92 -59 -96 0 -3 -57 -6 -127 -6 -96 0 -143 -4 -188 -18
-173 -53 -321 -176 -393 -327 -48 -102 -65 -169 -67 -273 -1 -58 -5 -82 -16
-87 -309 -158 -476 -430 -464 -759 2 -58 11 -132 20 -165 65 -242 246 -442
488 -540 123 -50 198 -62 413 -64 l191 -2 -18 93 c-10 51 -21 120 -25 153 -3
33 -8 63 -10 66 -7 12 -18 232 -19 369 0 131 2 149 23 191 30 62 75 113 125
142 23 14 253 95 512 182 412 137 478 157 535 157 58 1 118 -17 534 -156 259
-87 481 -163 495 -171 52 -27 108 -85 136 -141 29 -57 30 -63 30 -204 -1 -135
-9 -302 -19 -360 -2 -14 -7 -49 -10 -79 -6 -53 -32 -187 -42 -224 -5 -17 4
-18 148 -16 176 2 283 20 403 68 218 87 384 242 480 446 56 118 78 207 81 335
3 127 -9 208 -46 319 -113 331 -423 566 -774 587 -145 8 -137 3 -151 94 -10
67 -15 95 -26 135 -92 329 -303 597 -593 751 -179 95 -331 134 -536 139 -76 1
-168 -3 -210 -10z"/>
<path d="M2095 2565 c-348 -117 -464 -159 -478 -176 -17 -21 -18 -37 -12 -183
3 -88 8 -173 10 -190 2 -17 7 -58 10 -91 3 -33 8 -67 10 -75 2 -8 6 -37 10
-64 3 -27 8 -52 10 -56 2 -4 6 -17 9 -31 60 -314 212 -586 443 -791 40 -36
220 -163 236 -166 4 -1 35 -16 70 -34 34 -18 82 -40 106 -50 40 -16 46 -16 84
-1 68 28 280 143 297 162 3 4 31 26 63 50 360 267 550 746 552 1394 0 112 -1
120 -23 137 -17 14 -921 323 -934 319 -2 0 -210 -69 -463 -154z m879 -360 c47
-35 70 -90 63 -147 -3 -24 -35 -86 -89 -170 -45 -73 -87 -140 -93 -150 -84
-146 -257 -406 -284 -427 -36 -28 -103 -36 -151 -20 -15 6 -92 76 -172 157
-111 111 -148 156 -156 184 -27 98 34 190 133 202 54 7 101 -16 167 -81 32
-31 59 -55 61 -52 2 2 68 108 147 234 139 225 190 289 234 298 55 11 101 2
140 -28z"/>
</g>
</svg>
